<svg width="56" height="62" viewBox="0 0 56 62" fill="none" xmlns="http://www.w3.org/2000/svg">
<rect x="2" y="22.2998" width="52" height="37.7" rx="5" stroke="black" stroke-width="3"/>
<path d="M13.5557 48.4004H13.5846" stroke="black" stroke-width="5" stroke-linecap="round"/>
<path d="M2 37L53.9998 36.8" stroke="black" stroke-width="3" stroke-linecap="round"/>
<path d="M25.1109 7V17.3C25.1109 20.0614 22.8723 22.3 20.1109 22.3H9.88867C7.12725 22.3 4.88867 20.0614 4.88867 17.3V7C4.88867 4.23858 7.12725 2 9.88867 2H20.1109C22.8723 2 25.1109 4.23858 25.1109 7Z" stroke="black" stroke-width="3" stroke-linecap="round"/>
<path d="M25.1112 12.7998V17.2998C25.1112 20.0612 27.3498 22.2998 30.1112 22.2998H34.5557C37.3171 22.2998 39.5557 20.0612 39.5557 17.2998V12.7998C39.5557 10.0384 37.3171 7.7998 34.5557 7.7998H30.1112C27.3498 7.7998 25.1112 10.0384 25.1112 12.7998Z" stroke="black" stroke-width="3" stroke-linecap="round"/>
</svg>
