<svg width="23" height="22" viewBox="0 0 23 22" fill="none" xmlns="http://www.w3.org/2000/svg">
<path d="M11.0245 0.963525C11.1741 0.502869 11.8259 0.50287 11.9755 0.963525L14.1942 7.7918C14.2611 7.99781 14.4531 8.13729 14.6697 8.13729H21.8494C22.3337 8.13729 22.5351 8.7571 22.1433 9.0418L16.3348 13.2619C16.1595 13.3892 16.0862 13.6149 16.1531 13.8209L18.3718 20.6492C18.5215 21.1098 17.9942 21.4929 17.6024 21.2082L11.7939 16.9881C11.6186 16.8608 11.3814 16.8608 11.2061 16.9881L5.39763 21.2082C5.00578 21.4929 4.47854 21.1098 4.62821 20.6492L6.84685 13.8209C6.91379 13.6149 6.84046 13.3892 6.66522 13.2619L0.856742 9.04179C0.464885 8.75709 0.666273 8.13729 1.15064 8.13729H8.3303C8.54692 8.13729 8.73889 7.99781 8.80583 7.7918L11.0245 0.963525Z" fill="#D9D9D9"/>
</svg>
